<svg id="Lager_1" data-name="Lager 1" xmlns="http://www.w3.org/2000/svg" viewBox="0 0 324.46 57.6"><defs><style>.cls-1{fill:#0077c0;fill-rule:evenodd;}.cls-2{fill:#1a161a;}</style></defs><title>Region Stockholm_RGB</title><path class="cls-1" d="M69.2,52.19H57.89A13.47,13.47,0,0,1,44.42,38.7V6.06H39.35c0,10.9,0,21.19,0,32.64A18.53,18.53,0,0,0,57.89,57.23c3.73,0,8,0,11.32,0h0v-5Z" transform="translate(-6.4 -6.06)"/><path class="cls-1" d="M69.2,44H57.84a5.25,5.25,0,0,1-5.22-5.27V6.06h-5V38.7A10.28,10.28,0,0,0,57.89,49H69.2V44Z" transform="translate(-6.4 -6.06)"/><path class="cls-1" d="M6.4,52.19H17.71A13.47,13.47,0,0,0,31.17,38.7V6.06h5V38.7A18.52,18.52,0,0,1,17.66,57.23c-3.68,0-8,0-11.27,0h0v-5Z" transform="translate(-6.4 -6.06)"/><path class="cls-1" d="M6.4,44H17.71A5.26,5.26,0,0,0,23,38.7V6.06h5c0,6.05,0,26.26,0,32.64A10.29,10.29,0,0,1,17.71,49H6.4V44Z" transform="translate(-6.4 -6.06)"/><path class="cls-2" d="M91.87,57.25l-1.68-4.71c-1-2.66-1.5-3.44-3.38-3.44H85.6v8.15H80.78V37.09h7.48c3.87,0,7.71.9,7.71,5.23a4.66,4.66,0,0,1-4,4.94v.06c1.47.32,1.88,1.65,2.57,3.49L97,57.25ZM87,40.64H85.6v4.91H87c1.85,0,4.07-.14,4.07-2.51C91.06,40.93,89,40.64,87,40.64Z" transform="translate(-6.4 -6.06)"/><path class="cls-2" d="M102.12,51.15c.23,2.2,1.88,3.24,4.36,3.24a9.83,9.83,0,0,0,4.74-1.3v3.47a12.75,12.75,0,0,1-5.37,1c-4.94,0-8.35-2.89-8.35-7.83,0-4.71,2.95-7.86,7.6-7.86,5.43,0,7.39,3.73,7.39,8.29v1ZM105.21,45c-2,0-3,1.44-3.12,3.29h6.09C108.13,46.53,107.32,45,105.21,45Z" transform="translate(-6.4 -6.06)"/><path class="cls-2" d="M121.48,63.66a15.28,15.28,0,0,1-5.49-1l.29-3.78A10.35,10.35,0,0,0,121,60.16c3.32,0,4.56-1.88,4.56-4.59v-.81h-.06a5.68,5.68,0,0,1-4.88,2.48c-4.25,0-6.44-3.26-6.44-7.54s2-7.8,6.59-7.8a5.57,5.57,0,0,1,4.91,2.8h.06V42.26h4.3V55.6C130.09,60.92,127.6,63.66,121.48,63.66Zm.75-18.14c-2.22,0-3.15,2-3.15,4.13s1.24,4,3.06,4c2.08,0,3.38-1.79,3.38-4.16C125.52,47.49,124.54,45.52,122.23,45.52Z" transform="translate(-6.4 -6.06)"/><path class="cls-2" d="M133.7,39.72V35.93h4.68v3.78Zm0,17.53v-15h4.68v15Z" transform="translate(-6.4 -6.06)"/><path class="cls-2" d="M149.24,57.59c-4.94,0-8.35-3.12-8.35-7.8,0-5,3.61-7.89,8.35-7.89s8.38,2.92,8.38,7.89C157.62,54.47,154.21,57.59,149.24,57.59Zm0-12.28c-2.46,0-3.5,2.05-3.5,4.3s.87,4.59,3.5,4.59,3.55-2.25,3.55-4.59S151.7,45.32,149.24,45.32Z" transform="translate(-6.4 -6.06)"/><path class="cls-2" d="M170.62,57.25V49.71c0-2.43-.61-4-2.45-4-2.4,0-3.29,2.08-3.29,4.79v6.73h-4.68v-15h4.3v2.48h.06a5.62,5.62,0,0,1,5.26-2.83c3.87,0,5.46,2.74,5.46,6v9.39Z" transform="translate(-6.4 -6.06)"/><path class="cls-2" d="M191,57.59a19.79,19.79,0,0,1-5.69-.84l.43-4.13a10.91,10.91,0,0,0,5.14,1.3c1.65,0,3.44-.52,3.44-2.22,0-3.78-9.24-1.7-9.24-8.78,0-4.71,4.25-6.18,8.09-6.18a16.56,16.56,0,0,1,5,.75l-.35,3.81a10.59,10.59,0,0,0-4.33-.9c-1.36,0-3.44.32-3.44,2.25,0,3.35,9.27,1.44,9.27,8.52C199.39,56.09,195.35,57.59,191,57.59Z" transform="translate(-6.4 -6.06)"/><path class="cls-2" d="M208.39,57.59c-4,0-5.34-2-5.34-5.31v-6.7h-2.92V42.26h3V39.05l4.62-1.44v4.65h3.55v3.32h-3.55v6.09c0,1.59.38,2.63,2,2.63a5.78,5.78,0,0,0,1.65-.26l.17,3.23A16,16,0,0,1,208.39,57.59Z" transform="translate(-6.4 -6.06)"/><path class="cls-2" d="M220.9,57.59c-4.94,0-8.35-3.12-8.35-7.8,0-5,3.61-7.89,8.35-7.89s8.38,2.92,8.38,7.89C229.27,54.47,225.86,57.59,220.9,57.59Zm0-12.28c-2.46,0-3.5,2.05-3.5,4.3s.87,4.59,3.5,4.59,3.55-2.25,3.55-4.59S223.35,45.32,220.9,45.32Z" transform="translate(-6.4 -6.06)"/><path class="cls-2" d="M239.21,57.59c-4.94,0-8.17-3.06-8.17-7.86s3.26-7.83,8.12-7.83a10.34,10.34,0,0,1,4,.72l-.35,3.5a5.77,5.77,0,0,0-2.95-.72c-2.31,0-4,1.7-4,4.39a4.06,4.06,0,0,0,4.16,4.3,7.21,7.21,0,0,0,3.12-.69l.14,3.58A13.27,13.27,0,0,1,239.21,57.59Z" transform="translate(-6.4 -6.06)"/><path class="cls-2" d="M254.76,57.25l-4.48-7.37h-.06v7.37h-4.68V35.59h4.68V48.44h.06l4.45-6.18H260l-5.34,6.82,5.89,8.17Z" transform="translate(-6.4 -6.06)"/><path class="cls-2" d="M272.52,57.25V49.71c0-2.43-.61-4-2.45-4-2.4,0-3.29,2.08-3.29,4.79v6.73H262.1V35.59h4.68v8.84h.06a5.81,5.81,0,0,1,4.88-2.51c3.87,0,5.46,2.74,5.46,6v9.39Z" transform="translate(-6.4 -6.06)"/><path class="cls-2" d="M287.84,57.59c-4.94,0-8.35-3.12-8.35-7.8,0-5,3.61-7.89,8.35-7.89s8.38,2.92,8.38,7.89C296.22,54.47,292.81,57.59,287.84,57.59Zm0-12.28c-2.46,0-3.5,2.05-3.5,4.3s.87,4.59,3.5,4.59,3.55-2.25,3.55-4.59S290.3,45.32,287.84,45.32Z" transform="translate(-6.4 -6.06)"/><path class="cls-2" d="M298.49,57.25V35.59h4.68V57.25Z" transform="translate(-6.4 -6.06)"/><path class="cls-2" d="M326.18,57.25v-8.4c0-1.59-.38-3.12-2.14-3.12-2.14,0-2.92,2.11-2.92,4.82v6.7h-4.68v-8.4c0-1.59-.38-3.12-2.14-3.12-2.14,0-2.92,2.11-2.92,4.82v6.7h-4.68v-15H311v2.51h.06a5.52,5.52,0,0,1,5.05-2.86,4.62,4.62,0,0,1,4.59,2.8,5.6,5.6,0,0,1,5.05-2.8c4.07,0,5.08,2.48,5.08,6.27v9.07Z" transform="translate(-6.4 -6.06)"/></svg>